<svg width="186" height="36" viewBox="0 0 186 36" fill="none" xmlns="http://www.w3.org/2000/svg">
<path d="M167.909 0H160.957C151.016 0 142.957 8.05582 142.957 17.9932C142.957 27.9305 151.016 35.9863 160.957 35.9863H167.909C177.85 35.9863 185.909 27.9305 185.909 17.9932C185.909 8.05582 177.85 0 167.909 0Z" fill="white"/>
<path d="M81.0092 0H58.0926C48.1515 0 40.0926 8.05582 40.0926 17.9932C40.0926 27.9305 48.1515 35.9863 58.0926 35.9863H81.0092C90.9503 35.9863 99.0092 27.9305 99.0092 17.9932C99.0092 8.05582 90.9503 0 81.0092 0Z" fill="white"/>
<path d="M18.0912 36C28.0323 36 36.0912 27.9411 36.0912 18C36.0912 8.05887 28.0323 0 18.0912 0C8.15001 0 0.0911255 8.05887 0.0911255 18C0.0911255 27.9411 8.15001 36 18.0912 36Z" fill="white"/>
<path d="M57.2186 18.6415C58.079 18.341 59.39 17.9723 60.4143 17.7811V18.5322C59.4856 18.7234 58.2838 19.1058 57.6692 19.3516C55.8665 20.0482 55.648 20.8266 55.648 21.4412C55.648 22.5337 56.3582 22.9571 57.2868 22.9571C57.9834 22.9571 58.3931 22.6976 59.6495 21.7963L60.0866 21.4685L60.3733 21.8919L59.7588 22.5064C58.5433 23.7219 57.8468 24.3092 56.5767 24.3092C55.0744 24.3092 53.8316 23.4488 53.8316 21.7416C53.8316 20.5671 54.4598 19.6384 57.2322 18.6415H57.2186ZM59.5266 22.165V17.4533C59.5266 15.4457 58.9667 14.9541 57.6146 14.9541C57.1366 14.9541 56.522 15.0224 55.7573 15.3228L56.6177 14.6809L56.1123 16.429C55.9348 17.0709 55.607 17.4123 55.0334 17.4123C54.4598 17.4123 54.1321 17.0982 54.0774 16.5793C54.4462 15.0087 55.9758 14.0254 58.0926 14.0254C60.2095 14.0254 61.2611 14.995 61.2611 17.6035V21.9738C61.2611 22.8752 61.5479 23.1893 61.9985 23.1893C62.34 23.1893 62.5585 23.0117 62.7907 22.7386L63.214 23.1893C62.7224 23.995 62.1488 24.2682 61.4249 24.2682C60.2777 24.2682 59.5403 23.4488 59.5266 22.1787V22.165Z" fill="black"/>
<path d="M67.6656 19.734V18.7507C67.6656 17.6172 67.652 16.989 67.5974 16.1695L65.9722 15.9783V15.2545L68.8402 14.0117L69.1543 14.2166L69.4001 16.7841V19.7204C69.4001 20.9905 69.4138 23.1073 69.4684 24.036H67.611C67.652 23.1073 67.6793 20.9905 67.6793 19.7204L67.6656 19.734ZM66.1497 23.3122L68.3895 22.9025H68.8948L71.1345 23.3122V24.0497H66.1361V23.3122H66.1497ZM68.5397 16.9616H69.7279L69.2226 17.1255C69.8644 15.1862 71.1345 14.0254 72.3364 14.0254C72.9509 14.0254 73.5792 14.3258 73.8113 14.7765C73.8113 15.7462 73.4289 16.2924 72.6095 16.2924C72.1315 16.2924 71.7355 16.1012 71.3531 15.7735L70.7931 15.2818L71.7901 15.1043C70.5473 15.7598 69.8098 16.7841 69.3455 18.3547H68.526V16.9753L68.5397 16.9616Z" fill="black"/>
<path d="M85.2975 17.9723C85.2975 18.4503 85.2429 18.8463 85.1609 19.1195H77.5539V18.2454H82.3886C83.3719 18.2454 83.604 17.7811 83.604 17.1802C83.604 15.992 82.6344 14.9541 81.3779 14.9541C80.1215 14.9541 78.6055 16.0466 78.6055 18.9966C78.6055 21.6051 79.9166 22.9844 81.9379 22.9844C83.2353 22.9844 84.0547 22.3972 84.7922 21.5504L85.2839 21.9328C84.5327 23.3941 83.208 24.3228 81.337 24.3228C78.5646 24.3228 76.7618 22.4108 76.7618 19.2697C76.7618 16.1286 78.9333 14.0254 81.4872 14.0254C83.6314 14.0254 85.3112 15.4867 85.3112 17.9723H85.2975Z" fill="black"/>
<path d="M120.97 36C130.911 36 138.97 27.9411 138.97 18C138.97 8.05887 130.911 0 120.97 0C111.029 0 102.97 8.05887 102.97 18C102.97 27.9411 111.029 36 120.97 36Z" fill="white"/>
<path d="M159.305 18.642C160.166 18.3415 161.477 17.9728 162.501 17.7816V18.5327C161.572 18.7239 160.371 19.1063 159.756 19.3521C157.953 20.0486 157.735 20.8271 157.735 21.4417C157.735 22.5342 158.445 22.9576 159.374 22.9576C160.07 22.9576 160.48 22.6981 161.736 21.7967L162.173 21.469L162.46 21.8923L161.846 22.5069C160.63 23.7224 159.934 24.3096 158.663 24.3096C157.161 24.3096 155.918 23.4492 155.918 21.7421C155.918 20.5676 156.547 19.6389 159.319 18.642H159.305ZM161.627 22.1655V17.4538C161.627 15.4462 161.067 14.9546 159.715 14.9546C159.237 14.9546 158.622 15.0228 157.858 15.3233L158.718 14.6814L158.213 16.4295C158.035 17.0714 157.707 17.4128 157.134 17.4128C156.56 17.4128 156.232 17.0987 156.178 16.5797C156.547 15.0092 158.076 14.0259 160.193 14.0259C162.31 14.0259 163.361 14.9955 163.361 17.604V21.9743C163.361 22.8757 163.648 23.1898 164.099 23.1898C164.44 23.1898 164.659 23.0122 164.891 22.7391L165.314 23.1898C164.823 23.9955 164.249 24.2687 163.525 24.2687C162.378 24.2687 161.641 23.4492 161.627 22.1791V22.1655Z" fill="black"/>
<path d="M169.739 24.0502C169.78 23.1215 169.807 21.0047 169.807 19.7346V18.7649C169.807 17.6314 169.78 17.0032 169.739 16.1701L168.073 15.9789V15.2551L171.241 14.0123L171.555 14.2171L171.487 17.0032V19.7209C171.487 20.991 171.514 23.1079 171.555 24.0366H169.739V24.0502ZM172.962 23.3127V24.0502H168.195V23.3127L170.435 22.903H170.913L172.962 23.3127ZM169.247 10.4341C169.247 9.64202 169.848 9.12305 170.626 9.12305C171.405 9.12305 172.006 9.64202 172.006 10.4341C172.006 11.2262 171.405 11.7452 170.626 11.7452C169.848 11.7452 169.247 11.1989 169.247 10.4341Z" fill="black"/>
<path d="M24.1409 14.0398C23.1439 13.2067 20.9861 17.0717 19.4019 18.9154C17.4899 21.1551 15.3457 22.794 13.502 22.3843C11.6583 21.9746 14.1166 18.3964 14.9907 17.2219C15.8647 16.0474 17.7904 14.1491 17.1621 14.0398C16.5339 13.9306 15.5096 14.75 13.8435 16.8259C12.1636 18.9154 9.86925 23.272 12.0407 24.0095C14.2122 24.747 16.9163 22.2887 17.8586 21.4693C18.9102 20.5542 19.675 19.5573 19.1014 20.6908C18.9922 20.923 17.9952 23.0671 19.4292 23.6954C20.8632 24.3236 22.6113 23.0808 22.6113 22.9442C22.6113 22.8076 20.8769 23.6544 20.1804 22.8623C19.4838 22.0702 20.2896 20.1172 21.2456 18.5466C22.2016 16.9761 24.537 14.3812 24.1272 14.0535L24.1409 14.0398Z" fill="black"/>
<path d="M14.7448 15.6373C16.1402 15.6373 17.2714 14.9525 17.2714 14.1077C17.2714 13.2629 16.1402 12.5781 14.7448 12.5781C13.3494 12.5781 12.2183 13.2629 12.2183 14.1077C12.2183 14.9525 13.3494 15.6373 14.7448 15.6373Z" fill="black"/>
<path d="M21.71 15.61C23.0752 15.61 24.182 14.9374 24.182 14.1077C24.182 13.2781 23.0752 12.6055 21.71 12.6055C20.3448 12.6055 19.2381 13.2781 19.2381 14.1077C19.2381 14.9374 20.3448 15.61 21.71 15.61Z" fill="black"/>
<path d="M118.388 18.0138C118.388 16.5798 119.536 15.3916 120.97 15.3916C122.404 15.3916 123.551 16.5798 123.551 18.0138C123.551 19.4477 122.404 20.5949 120.97 20.5949C119.536 20.5949 118.388 19.4204 118.388 18.0138Z" fill="black"/>
</svg>
